<svg width="61" height="60" viewBox="0 0 61 60" fill="none" xmlns="http://www.w3.org/2000/svg">
<path d="M61 27C61.0084 24.8855 60.4579 22.8063 59.4042 20.9729C58.3506 19.1396 56.8312 17.6172 55 16.56C55.0451 16.041 55.0451 15.519 55 15C55 12.613 54.0517 10.3238 52.3639 8.63602C50.6761 6.94819 48.3869 5.99998 46 5.99998H45.46C44.9604 4.61492 44.1286 3.37358 43.0376 2.38482C41.9465 1.39606 40.6296 0.690084 39.2022 0.328794C37.7748 -0.0324964 36.2806 -0.038063 34.8505 0.312583C33.4205 0.663229 32.0983 1.35938 31 2.33998C29.9016 1.35938 28.5794 0.663229 27.1494 0.312583C25.7193 -0.038063 24.2251 -0.0324964 22.7977 0.328794C21.3703 0.690084 20.0534 1.39606 18.9623 2.38482C17.8713 3.37358 17.0395 4.61492 16.54 5.99998H16C13.613 5.99998 11.3238 6.94819 9.63599 8.63602C7.94816 10.3238 6.99995 12.613 6.99995 15C6.9548 15.519 6.9548 16.041 6.99995 16.56C5.29733 17.5224 3.85575 18.8863 2.80067 20.5331C1.7456 22.1799 1.10903 24.0596 0.946364 26.0086C0.7837 27.9576 1.09988 29.9168 1.86737 31.7157C2.63487 33.5146 3.83042 35.0987 5.34995 36.33C4.36677 38.1638 3.8773 40.2217 3.92959 42.3018C3.98188 44.3819 4.57413 46.4126 5.64822 48.1947C6.72231 49.9767 8.24131 51.4489 10.0561 52.4667C11.871 53.4845 13.9193 54.0128 16 54H16.54C17.0395 55.385 17.8713 56.6264 18.9623 57.6151C20.0534 58.6039 21.3703 59.3099 22.7977 59.6712C24.2251 60.0325 25.7193 60.038 27.1494 59.6874C28.5794 59.3367 29.9016 58.6406 31 57.66C32.0983 58.6406 33.4205 59.3367 34.8505 59.6874C36.2806 60.038 37.7748 60.0325 39.2022 59.6712C40.6296 59.3099 41.9465 58.6039 43.0376 57.6151C44.1286 56.6264 44.9604 55.385 45.46 54H46C48.0679 53.9869 50.0975 53.4396 51.8916 52.4112C53.6858 51.3828 55.1838 49.9082 56.2402 48.1303C57.2966 46.3525 57.8757 44.3318 57.9212 42.2643C57.9667 40.1968 57.4771 38.1526 56.5 36.33C57.8993 35.2097 59.0298 33.7901 59.8085 32.1755C60.5872 30.561 60.9943 28.7925 61 27ZM28 19.65C27.3466 19.2763 26.6644 18.9552 25.96 18.69C25.2041 18.4354 24.378 18.4915 23.6635 18.8459C22.949 19.2003 22.4046 19.8241 22.15 20.58C21.8953 21.3358 21.9514 22.1619 22.3059 22.8764C22.6603 23.5909 23.2841 24.1354 24.04 24.39C25.1948 24.8075 26.1937 25.5692 26.9019 26.5725C27.61 27.5757 27.9933 28.772 28 30V34.65C27.3466 34.2763 26.6644 33.9552 25.96 33.69C25.2041 33.4354 24.378 33.4915 23.6635 33.8459C22.949 34.2003 22.4046 34.8241 22.15 35.58C21.8953 36.3358 21.9514 37.1619 22.3059 37.8764C22.6603 38.5909 23.2841 39.1354 24.04 39.39C25.1948 39.8075 26.1937 40.5692 26.9019 41.5725C27.61 42.5757 27.9933 43.772 28 45V51C28 51.7956 27.6839 52.5587 27.1213 53.1213C26.5587 53.6839 25.7956 54 25 54C24.4196 53.9962 23.8527 53.8241 23.3682 53.5046C22.8836 53.1851 22.5021 52.7319 22.27 52.2C22.773 51.9048 23.2542 51.5739 23.71 51.21C24.0133 50.9578 24.264 50.6484 24.4478 50.2994C24.6316 49.9504 24.7448 49.5685 24.781 49.1758C24.8172 48.783 24.7757 48.3869 24.6589 48.0101C24.542 47.6334 24.3521 47.2833 24.1 46.98C23.8478 46.6766 23.5384 46.4259 23.1894 46.2421C22.8403 46.0584 22.4585 45.9451 22.0657 45.9089C21.6729 45.8727 21.2769 45.9142 20.9001 46.0311C20.5234 46.1479 20.1733 46.3378 19.87 46.59C18.7867 47.5019 17.4159 48.0013 16 48C14.4087 48 12.8825 47.3678 11.7573 46.2426C10.6321 45.1174 9.99995 43.5913 9.99995 42C10.0143 40.8708 10.3471 39.7685 10.96 38.82C11.6332 38.9407 12.3159 39.001 13 39C13.7956 39 14.5587 38.6839 15.1213 38.1213C15.6839 37.5587 16 36.7956 16 36C16 35.2043 15.6839 34.4413 15.1213 33.8787C14.5587 33.316 13.7956 33 13 33C12.2913 33.0041 11.5885 32.8716 10.93 32.61C9.85099 32.2208 8.90617 31.5306 8.20742 30.621C7.50868 29.7114 7.0853 28.6206 6.98744 27.4778C6.88957 26.335 7.12132 25.188 7.65524 24.1729C8.18916 23.1577 9.00286 22.3169 9.99995 21.75C10.4262 22.1422 10.8883 22.4937 11.38 22.8C12.0722 23.1978 12.8941 23.3044 13.6648 23.0962C14.4356 22.888 15.0921 22.3822 15.49 21.69C15.8878 20.9978 15.9943 20.1759 15.7862 19.4051C15.578 18.6343 15.0722 17.9778 14.38 17.58C13.9576 17.347 13.6054 17.0052 13.36 16.59C13.0826 16.1083 12.9571 15.5541 13 15C13 14.2043 13.316 13.4413 13.8786 12.8787C14.4412 12.3161 15.2043 12 16 12C16.2089 11.9708 16.421 11.9708 16.63 12C16.7888 12.482 16.9792 12.953 17.2 13.41C17.3959 13.7537 17.658 14.0553 17.971 14.2974C18.2841 14.5394 18.6419 14.7172 19.0239 14.8203C19.406 14.9235 19.8046 14.9501 20.197 14.8985C20.5893 14.847 20.9676 14.7183 21.31 14.52C21.9751 14.1198 22.4592 13.4774 22.6606 12.7278C22.862 11.9781 22.765 11.1796 22.39 10.5C22.1382 10.0398 22.0043 9.52449 22 8.99998C22 8.20433 22.316 7.44127 22.8786 6.87866C23.4412 6.31605 24.2043 5.99998 25 5.99998C25.7956 5.99998 26.5587 6.31605 27.1213 6.87866C27.6839 7.44127 28 8.20433 28 8.99998V19.65ZM51.07 32.61C50.4114 32.8716 49.7086 33.0041 49 33C48.2043 33 47.4412 33.316 46.8786 33.8787C46.316 34.4413 46 35.2043 46 36C46 36.7956 46.316 37.5587 46.8786 38.1213C47.4412 38.6839 48.2043 39 49 39C49.684 39.001 50.3667 38.9407 51.04 38.82C51.6528 39.7685 51.9856 40.8708 52 42C52 43.5913 51.3678 45.1174 50.2426 46.2426C49.1174 47.3678 47.5913 48 46 48C44.584 48.0013 43.2132 47.5019 42.13 46.59C41.5173 46.0808 40.7275 45.8358 39.9342 45.9089C39.1409 45.9821 38.4092 46.3673 37.9 46.98C37.3907 47.5926 37.1458 48.3825 37.2189 49.1758C37.292 49.969 37.6773 50.7008 38.29 51.21C38.7457 51.5739 39.2269 51.9048 39.73 52.2C39.4978 52.7319 39.1163 53.1851 38.6318 53.5046C38.1472 53.8241 37.5804 53.9962 37 54C36.2043 54 35.4412 53.6839 34.8786 53.1213C34.316 52.5587 34 51.7956 34 51V45C34.0066 43.772 34.3899 42.5757 35.0981 41.5725C35.8062 40.5692 36.8051 39.8075 37.96 39.39C38.7158 39.1354 39.3396 38.5909 39.694 37.8764C40.0485 37.1619 40.1046 36.3358 39.85 35.58C39.5953 34.8241 39.0509 34.2003 38.3364 33.8459C37.6219 33.4915 36.7958 33.4354 36.04 33.69C35.3355 33.9552 34.6534 34.2763 34 34.65V30C34.0066 28.772 34.3899 27.5757 35.0981 26.5725C35.8062 25.5692 36.8051 24.8075 37.96 24.39C38.3342 24.2639 38.68 24.0654 38.9775 23.8057C39.2751 23.546 39.5185 23.2302 39.694 22.8764C39.8695 22.5226 39.9736 22.1377 40.0004 21.7437C40.0271 21.3497 39.976 20.9542 39.85 20.58C39.7239 20.2057 39.5253 19.8599 39.2656 19.5624C39.0059 19.2649 38.6902 19.0214 38.3364 18.8459C37.9826 18.6704 37.5977 18.5663 37.2037 18.5395C36.8097 18.5128 36.4142 18.5639 36.04 18.69C35.3355 18.9552 34.6534 19.2763 34 19.65V8.99998C34 8.20433 34.316 7.44127 34.8786 6.87866C35.4412 6.31605 36.2043 5.99998 37 5.99998C37.7956 5.99998 38.5587 6.31605 39.1213 6.87866C39.6839 7.44127 40 8.20433 40 8.99998C39.9957 9.52449 39.8617 10.0398 39.61 10.5C39.4104 10.8406 39.2799 11.2173 39.2262 11.6084C39.1725 11.9995 39.1965 12.3973 39.2968 12.7792C39.3971 13.161 39.5718 13.5193 39.8109 13.8334C40.05 14.1476 40.3487 14.4115 40.69 14.61C41.0324 14.8083 41.4106 14.937 41.803 14.9885C42.1953 15.0401 42.5939 15.0135 42.976 14.9103C43.358 14.8072 43.7158 14.6294 44.0289 14.3874C44.3419 14.1453 44.604 13.8437 44.8 13.5C45.0245 13.0138 45.215 12.5126 45.37 12C45.5789 11.9708 45.791 11.9708 46 12C46.7956 12 47.5587 12.3161 48.1213 12.8787C48.6839 13.4413 49 14.2043 49 15C48.9954 15.5881 48.818 16.1619 48.49 16.65C48.2446 17.0393 47.9038 17.3594 47.5 17.58C46.8077 17.9778 46.3019 18.6343 46.0937 19.4051C45.8856 20.1759 45.9921 20.9978 46.39 21.69C46.7878 22.3822 47.4443 22.888 48.2151 23.0962C48.9858 23.3044 49.8077 23.1978 50.5 22.8C51.0386 22.5087 51.5419 22.1564 52 21.75C53.0005 22.3069 53.8207 23.1385 54.3638 24.1465C54.907 25.1545 55.1503 26.2969 55.0652 27.4388C54.98 28.5807 54.5699 29.6744 53.8832 30.5907C53.1965 31.507 52.262 32.2077 51.19 32.61H51.07Z" fill="url(#paint0_linear_57_283)"/>
<defs>
<linearGradient id="paint0_linear_57_283" x1="0.999954" y1="4" x2="61" y2="64" gradientUnits="userSpaceOnUse">
<stop stop-color="#0094FF"/>
<stop offset="1" stop-color="#00FFA3"/>
</linearGradient>
</defs>
</svg>
